<svg fill="none" height="200" viewBox="0 0 200 200" width="200" xmlns="http://www.w3.org/2000/svg" xmlns:xlink="http://www.w3.org/1999/xlink"><linearGradient id="a" gradientUnits="userSpaceOnUse" x1="100" x2="207.137" y1="0" y2="184.27"><stop offset="0" stop-color="#01acd7"/><stop offset="1" stop-color="#018eb2"/></linearGradient><path d="m200 0h-200v200h200z" fill="url(#a)"/><g stroke-miterlimit="10" stroke-width="5"><path d="m83.8064 146.359 27.5776-27.577" stroke="#b5f0ff"/><path d="m109.17 148.585h18" stroke="#7265c1"/><path d="m121.67 170.085v-16" stroke="#7265c1"/><path d="m127.17 165.585h13" stroke="#7265c1"/><path d="m67.4351 129.987 27.5771-27.577" stroke="#b5f0ff"/><path d="m66.4784 115.126-7.0211-7.021 13.2598-13.2599 7.0211 7.0209" stroke="#5c50a4"/><path d="m115.451 137.579 27.978 27.979-13.259 13.259-27.979-27.978" stroke="#5c50a4"/><path d="m92.9703 88.8958 31.2717 31.2712" stroke="#85e9ff"/><path d="m84.7591 158.625-30.759-30.759" stroke="#85e9ff"/><path d="m92.9883 88.8778-38.9883 38.9882.0118 12.74 19.0801 19.08h12.7279l38.9882-38.988-.097-12.631-19.08-19.0799z" stroke="#4de1ff"/></g><path d="m54.0444 46.43c.85 0 1.564-.102 2.142-.306s1.037-.476 1.377-.816c.3513-.34.6007-.7367.748-1.19.1587-.4533.238-.935.238-1.445 0-.5327-.085-1.0087-.255-1.428-.17-.4307-.4363-.7933-.799-1.088-.3627-.306-.833-.5383-1.411-.697-.5667-.1587-1.2523-.238-2.057-.238h-4.607v7.208zm-4.624-17.476v7.106h3.638c1.564 0 2.7427-.2833 3.536-.85.8047-.5667 1.207-1.4677 1.207-2.703 0-1.2807-.3627-2.193-1.088-2.737s-1.8587-.816-3.4-.816zm3.893-3.536c1.6093 0 2.9863.153 4.131.459s2.0797.7423 2.805 1.309c.7367.5667 1.275 1.2523 1.615 2.057s.51 1.7113.51 2.72c0 .578-.085 1.1333-.255 1.666-.17.5213-.4363 1.0143-.799 1.479-.3513.4533-.8047.867-1.36 1.241-.544.374-1.1957.6913-1.955.952 3.3773.7593 5.066 2.584 5.066 5.474 0 1.0427-.1983 2.006-.595 2.89s-.9747 1.649-1.734 2.295c-.7593.6347-1.6943 1.1333-2.805 1.496s-2.38.544-3.808.544h-9.282v-24.582zm22.3619 11.696c.8613 0 1.6093-.1077 2.244-.323.646-.2153 1.173-.51 1.581-.884.4193-.3853.731-.8387.935-1.36s.306-1.0937.306-1.717c0-1.2467-.4137-2.2043-1.241-2.873-.816-.6687-2.0683-1.003-3.757-1.003h-2.924v8.16zm11.764 12.886h-4.131c-.782 0-1.3487-.306-1.7-.918l-5.168-7.871c-.1927-.2947-.408-.5043-.646-.629-.2267-.1247-.5667-.187-1.02-.187h-1.955v9.605h-4.573v-24.582h7.497c1.666 0 3.094.1757 4.284.527 1.2013.34 2.1817.8217 2.941 1.445.7707.6233 1.3373 1.3713 1.7 2.244.3627.8613.544 1.8133.544 2.856 0 .8273-.1247 1.6093-.374 2.346-.238.7367-.5893 1.4053-1.054 2.006-.4533.6007-1.02 1.1277-1.7 1.581-.6687.4533-1.4337.8103-2.295 1.071.2947.17.5667.374.816.612.2493.2267.476.4987.68.816zm8.2647-20.944v6.817h8.602v3.519h-8.602v6.953h10.914v3.655h-15.504v-24.582h15.504v3.638zm28.975 11.662-2.992-8.177c-.148-.3627-.301-.7933-.459-1.292-.159-.4987-.318-1.037-.476-1.615-.148.578-.301 1.122-.459 1.632-.159.4987-.312.935-.459 1.309l-2.975 8.143zm8.075 9.282h-3.536c-.397 0-.72-.0963-.969-.289-.25-.204-.437-.4533-.561-.748l-1.836-5.015h-10.183l-1.836 5.015c-.091.2607-.267.4987-.527.714-.261.2153-.584.323-.969.323h-3.57l9.673-24.582h4.658zm8.137-14.28h1.071c.431 0 .788-.0567 1.071-.17.283-.1247.527-.3173.731-.578l6.783-8.585c.283-.3627.578-.612.884-.748.317-.1473.714-.221 1.19-.221h3.944l-8.279 10.217c-.487.6233-.992 1.0653-1.513 1.326.374.136.708.3287 1.003.578.306.238.595.5553.867.952l8.534 11.509h-4.029c-.544 0-.952-.0737-1.224-.221-.261-.1587-.482-.3853-.663-.68l-6.953-9.078c-.215-.306-.465-.5213-.748-.646s-.691-.187-1.224-.187h-1.445v10.812h-4.573v-24.582h4.573z" fill="#fff"/><path d="m56.7077 57.64v14.36h-2.13v-6.47h-7.49v6.47h-2.14v-14.36h2.14v6.34h7.49v-6.34zm5.6925 14.36h-2.14v-14.36h2.14zm15.2636-6.99v5.6c-.7266.52-1.5.91-2.32 1.17-.82.2533-1.7133.38-2.68.38-1.16 0-2.21-.18-3.15-.54-.9333-.36-1.73-.8633-2.39-1.51s-1.17-1.42-1.53-2.32c-.3533-.9-.53-1.89-.53-2.97 0-1.0867.17-2.08.51-2.98.3467-.9067.84-1.68 1.48-2.32.64-.6467 1.4134-1.1467 2.32-1.5.9134-.36 1.9367-.54 3.07-.54.5734 0 1.1034.0433 1.59.13.4934.0867.95.21 1.37.37s.8067.3533 1.16.58c.36.22.6934.47 1 .75l-.61.96c-.0933.1533-.2166.25-.37.29-.1533.04-.32.0033-.5-.11-.1733-.1-.3666-.2167-.58-.35-.2066-.1333-.4566-.2567-.75-.37-.2866-.1133-.6233-.21-1.01-.29-.3866-.08-.8433-.12-1.37-.12-.7866 0-1.4966.13-2.13.39-.6333.2533-1.1733.62-1.62 1.1-.4466.48-.79 1.06-1.03 1.74-.24.6733-.36 1.43-.36 2.27 0 .88.1267 1.67.38 2.37.2534.6933.61 1.2833 1.07 1.77.4667.48 1.03.8467 1.69 1.1.6667.2533 1.41.38 2.23.38.32 0 .6167-.0167.89-.05.28-.04.5467-.0933.8-.16.2534-.0667.4967-.15.73-.25.24-.1.4767-.21.71-.33v-3.01h-2.12c-.1333 0-.2433-.04-.33-.12-.08-.08-.12-.18-.12-.3v-1.21zm14.6299-7.37v14.36h-2.13v-6.47h-7.49v6.47h-2.14v-14.36h2.14v6.34h7.49v-6.34zm3.0025 7.52h4.9998v1.66h-4.9998zm16.2118 5.05v1.79h-8.22v-14.36h2.13v12.57zm10.983.06-.01 1.73h-8.9v-14.36h8.9v1.73h-6.76v4.55h5.44v1.67h-5.44v4.68zm14.473-12.63-5.84 14.36h-1.91l-5.84-14.36h1.7c.186 0 .336.0467.45.14.12.0933.21.2133.27.36l3.88 9.76c.093.24.183.5033.27.79.093.2867.176.5867.25.9.066-.3133.14-.6133.22-.9s.166-.55.26-.79l3.87-9.76c.046-.1333.13-.25.25-.35.126-.1.28-.15.46-.15zm10.702 12.63-.01 1.73h-8.9v-14.36h8.9v1.73h-6.76v4.55h5.44v1.67h-5.44v4.68zm10.853-.06v1.79h-8.22v-14.36h2.13v12.57z" fill="#fff"/></svg>