<svg fill="none" height="200" viewBox="0 0 200 200" width="200" xmlns="http://www.w3.org/2000/svg" xmlns:xlink="http://www.w3.org/1999/xlink"><linearGradient id="a" gradientUnits="userSpaceOnUse" x1="100" x2="202.257" y1="0" y2="185.488"><stop offset="0" stop-color="#6456b5"/><stop offset="1" stop-color="#473c88"/></linearGradient><path d="m200 0h-200v200h200z" fill="url(#a)"/><g stroke-miterlimit="10" stroke-width="5"><path d="m85.4802 139.359 27.5768-27.577" stroke="#b5f0ff"/><path d="m110.843 141.585h18" stroke="#bdb1ff"/><path d="m123.343 163.085v-16" stroke="#bdb1ff"/><path d="m128.843 158.585h13" stroke="#bdb1ff"/><path d="m69.1088 122.987 27.5772-27.5768" stroke="#b5f0ff"/><path d="m68.1522 108.126-7.0211-7.021 13.2598-13.2599 7.0211 7.0211" stroke="#ad9eff"/><path d="m117.124 130.579 27.979 27.979-13.26 13.259-27.978-27.978" stroke="#ad9eff"/><path d="m94.6441 81.8958 31.2719 31.2712" stroke="#85e9ff"/><path d="m86.4329 151.625-30.7591-30.759" stroke="#85e9ff"/><path d="m94.6621 81.8778-38.9883 38.9882.0118 12.74 19.0801 19.08h12.7279l38.9884-38.988-.098-12.631-19.08-19.0799z" stroke="#4de1ff"/></g><path d="m53.0305 56.22c.9 0 1.656-.108 2.268-.324s1.098-.504 1.458-.864c.372-.36.636-.78.792-1.26.168-.48.252-.99.252-1.53 0-.564-.09-1.068-.27-1.512-.18-.456-.462-.84-.846-1.152-.384-.324-.882-.57-1.494-.738-.6-.168-1.326-.252-2.178-.252h-4.878v7.632zm-4.896-18.504v7.524h3.852c1.656 0 2.904-.3 3.744-.9.852-.6 1.278-1.554 1.278-2.862 0-1.356-.384-2.322-1.152-2.898s-1.968-.864-3.6-.864zm4.122-3.744c1.704 0 3.162.162 4.374.486s2.202.786 2.97 1.386c.78.6 1.35 1.326 1.71 2.178s.54 1.812.54 2.88c0 .612-.09 1.2-.27 1.764-.18.552-.462 1.074-.846 1.566-.372.48-.852.918-1.44 1.314-.576.396-1.266.732-2.07 1.008 3.576.804 5.364 2.736 5.364 5.796 0 1.104-.21 2.124-.63 3.06s-1.032 1.746-1.836 2.43c-.804.672-1.794 1.2-2.97 1.584s-2.52.576-4.032.576h-9.828v-26.028zm22.5973 12.384c.912 0 1.704-.114 2.376-.342.684-.228 1.242-.54 1.674-.936.444-.408.774-.888.99-1.44s.324-1.158.324-1.818c0-1.32-.438-2.334-1.314-3.042-.864-.708-2.19-1.062-3.978-1.062h-3.096v8.64zm12.456 13.644h-4.374c-.828 0-1.428-.324-1.8-.972l-5.472-8.334c-.204-.312-.432-.534-.684-.666-.24-.132-.6-.198-1.08-.198h-2.07v10.17h-4.842v-26.028h7.938c1.764 0 3.276.186 4.536.558 1.272.36 2.31.87 3.114 1.53.816.66 1.416 1.452 1.8 2.376.384.912.576 1.92.576 3.024 0 .876-.132 1.704-.396 2.484-.252.78-.624 1.488-1.116 2.124-.48.636-1.08 1.194-1.8 1.674-.708.48-1.518.858-2.43 1.134.312.18.6.396.864.648.264.24.504.528.72.864zm7.6709-22.176v7.218h9.1083v3.726h-9.1083v7.362h11.5563v3.87h-16.4163v-26.028h16.4163v3.852zm29.5993 12.348-3.168-8.658c-.156-.384-.318-.84-.486-1.368s-.336-1.098-.504-1.71c-.156.612-.318 1.188-.486 1.728-.168.528-.33.99-.486 1.386l-3.15 8.622zm8.55 9.828h-3.744c-.42 0-.762-.102-1.026-.306-.264-.216-.462-.48-.594-.792l-1.944-5.31h-10.782l-1.944 5.31c-.096.276-.282.528-.558.756s-.618.342-1.026.342h-3.78l10.242-26.028h4.932zm7.536-15.12h1.134c.456 0 .834-.06 1.134-.18.3-.132.558-.336.774-.612l7.182-9.09c.3-.384.612-.648.936-.792.336-.156.756-.234 1.26-.234h4.176l-8.766 10.818c-.516.66-1.05 1.128-1.602 1.404.396.144.75.348 1.062.612.324.252.63.588.918 1.008l9.036 12.186h-4.266c-.576 0-1.008-.078-1.296-.234-.276-.168-.51-.408-.702-.72l-7.362-9.612c-.228-.324-.492-.552-.792-.684s-.732-.198-1.296-.198h-1.53v11.448h-4.842v-26.028h4.842z" fill="#fff"/></svg>